<svg width="21" height="21" viewBox="0 0 21 21" fill="none" xmlns="http://www.w3.org/2000/svg">
<g clip-path="url(#clip0_41_57)">
<path fill-rule="evenodd" clip-rule="evenodd" d="M19.0442 18.4181H15.5843V13.0045C15.5843 11.7134 15.5624 10.0527 13.7866 10.0527C11.9866 10.0527 11.7118 11.4597 11.7118 12.9119V18.4181H8.25556V7.28539H11.5726V8.80757H11.62C12.0814 7.93203 13.2099 7.0091 14.8932 7.0091C18.3968 7.0091 19.0442 9.31423 19.0442 12.3127V18.4181ZM4.35462 5.76467C3.24288 5.76467 2.34692 4.8658 2.34692 3.7577C2.34692 2.65034 3.24288 1.75146 4.35462 1.75146C5.46126 1.75146 6.36013 2.65034 6.36013 3.7577C6.36013 4.8658 5.46126 5.76467 4.35462 5.76467ZM6.0853 18.4181H2.62176V7.28539H6.0853V18.4181Z" fill="black"/>
</g>
<defs>
<clipPath id="clip0_41_57">
<rect width="20" height="20" fill="white" transform="translate(0.680267 0.0849609)"/>
</clipPath>
</defs>
</svg>
