<svg width="21" height="21" viewBox="0 0 21 21" fill="none" xmlns="http://www.w3.org/2000/svg">
<g clip-path="url(#clip0_41_49)">
<path fill-rule="evenodd" clip-rule="evenodd" d="M20.6803 3.67563C19.9444 4.0023 19.1536 4.2223 18.3236 4.32146C19.1703 3.81396 19.8211 3.0098 20.1278 2.05146C19.3353 2.5223 18.4569 2.86313 17.5219 3.04813C16.7736 2.2498 15.7069 1.75146 14.5269 1.75146C12.2611 1.75146 10.4236 3.58896 10.4236 5.8548C10.4236 6.17647 10.4603 6.4898 10.5303 6.7898C7.12027 6.61896 4.0961 4.98563 2.07277 2.5023C1.71943 3.10896 1.51693 3.81313 1.51693 4.56563C1.51693 5.98896 2.2411 7.24563 3.34277 7.98146C2.67027 7.95896 2.03693 7.7748 1.4836 7.46813V7.51896C1.4836 9.5073 2.89777 11.1656 4.77527 11.5423C4.4311 11.6373 4.06777 11.6865 3.69443 11.6865C3.42943 11.6865 3.17277 11.6606 2.92193 11.6131C3.44443 13.2431 4.95943 14.4298 6.75527 14.4631C5.35027 15.5631 3.5811 16.219 1.65943 16.219C1.32777 16.219 1.0011 16.1998 0.680267 16.1623C2.4961 17.3256 4.65277 18.0056 6.97027 18.0056C14.5178 18.0056 18.6444 11.7531 18.6444 6.33063C18.6444 6.15313 18.6403 5.97646 18.6328 5.80063C19.4344 5.22146 20.1303 4.49896 20.6803 3.67563Z" fill="black"/>
</g>
<defs>
<clipPath id="clip0_41_49">
<rect width="20" height="20" fill="white" transform="translate(0.680267 0.0849609)"/>
</clipPath>
</defs>
</svg>
