<svg width="23" height="23" viewBox="0 0 23 23" fill="none" xmlns="http://www.w3.org/2000/svg">
<g clip-path="url(#clip0_41_20)">
<path fill-rule="evenodd" clip-rule="evenodd" d="M5.98928 2.74854H1.59692V4.58187H4.54712L7.08519 16.203H7.09692V16.4985H19.0136V16.2711L21.024 7.41524L21.3335 6.4152H6.78086L6.25804 4.02135L5.98928 2.74854ZM19.0016 8.24854H7.18126L8.58267 14.6652H17.5449L19.0016 8.24854Z" fill="black"/>
<path d="M9.84701 21.0817C10.8596 21.0817 11.6803 20.2609 11.6803 19.2484C11.6803 18.2358 10.8596 17.415 9.84701 17.415C8.83448 17.415 8.01367 18.2358 8.01367 19.2484C8.01367 20.2609 8.83448 21.0817 9.84701 21.0817Z" fill="black"/>
<path d="M18.097 19.2484C18.097 20.2609 17.2762 21.0817 16.2636 21.0817C15.2511 21.0817 14.4303 20.2609 14.4303 19.2484C14.4303 18.2358 15.2511 17.415 16.2636 17.415C17.2762 17.415 18.097 18.2358 18.097 19.2484Z" fill="black"/>
</g>
<defs>
<clipPath id="clip0_41_20">
<rect width="22" height="22" fill="white" transform="translate(0.680298 0.915039)"/>
</clipPath>
</defs>
</svg>
